<?xml version="1.0" encoding="utf-8"?>
<!-- Generator: Adobe Illustrator 18.1.1, SVG Export Plug-In . SVG Version: 6.00 Build 0)  -->
<svg version="1.1" id="Layer_1" xmlns="http://www.w3.org/2000/svg" xmlns:xlink="http://www.w3.org/1999/xlink" x="0px" y="0px"
	 viewBox="0 0 360 360" enable-background="new 0 0 360 360" xml:space="preserve">
<g>
	<g>
		<path fill="#F9FCFE" d="M32.1,26.7c9.1,2,16.7,3.4,25.1-1.2c8.1-4.4,15.8-13.9,26.1-12.7c6.6,0.8,13.7,6.6,20.6,7.8
			c10.2,2.1,19-1.3,29.2,1.9c9.2,3,17.7,8.3,27.8,5.7c6.8-1.7,12.5-2.9,19.1-3.3v-8.7c-7.6,1.4-15.2,3.9-22.8,3.9
			c-9.8,0-17.4-6.1-25.7-10c-10.5-5-17.8-3.2-28.8-1.4c-3.5,0.8-7.1,1-10.7,0.8c-3.2-0.4-6-1.6-8.5-3.5C72.9,4.2,65,12.1,57.4,17.8
			c-7.8,5.9-11.9,6.5-21.3,2.9c-11.8-4.5-23.1-5.2-35-5.2v9.1C11.3,24.2,21.1,24.2,32.1,26.7z"/>
		<path fill="#E8F7FD" d="M4,28.8c8.7-2,18.1,0.5,26.7,2.2c8.1,1.5,18.3,4.9,26.5,2.2c9-3.1,15.8-14.3,26.1-13.5
			c7.6,0.5,15.8,9.6,22.2,13c10.8,5.8,18,0.2,29.4,2.5c10.7,2.1,20.1,7.4,30,1.4c6-3.6,9.6-3.5,15.3-2.9v-8.5
			c-6.7,0.4-12.2,1.6-19.1,3.3c-10,2.6-18.5-2.8-27.8-5.7c-10.1-3.2-18.9,0.1-29.2-1.9c-6.9-1.4-14-7.2-20.5-7.8
			c-10.3-1.2-18.1,8.4-26.1,12.7c-8.4,4.6-16,3.2-25.1,1.2c-11-2.4-20.8-2.4-31-2.2v5.1C2,29.2,3,29,4,28.8z"/>
		<path fill="#E0F4FD" d="M33.3,36.3c7.8,0.8,16.3,3.4,24.2,1.7c9.2-2,15.8-7.8,25.8-6c7.8,1.5,15.5,6.7,23.7,8.4
			c9.8,2,19.2,2,28.7,5.2c8.9,3,16,6,25.3,3.7c7.1-1.7,12.4-4.3,19.1-5.4V33.5c-5.7-0.6-9.3-0.7-15.3,2.9c-9.9,5.9-19.4,0.7-30-1.4
			c-11.5-2.3-18.7,3.3-29.4-2.5c-6.3-3.4-14.6-12.5-22.2-13C72.9,18.8,66.1,30,57.1,33c-8.2,2.8-18.4-0.6-26.5-2.2
			c-8.5-1.6-17.9-4.2-26.7-2.2c-1,0.2-1.9,0.5-2.9,0.8v11.2C11.8,38.2,22.1,35.1,33.3,36.3z"/>
		<path fill="#D3EEFD" d="M8.1,51.5c9.1-3,13.7-7.7,24.2-8.4c8.5-0.5,17.1,0.5,25.7-0.1c9.2-0.6,16.7-2.7,25.2,1.7
			c9,4.6,15.1,4.2,25.3,3.6c13-0.8,17.5,2.1,27.9,8c6.3,3.5,13.2,6.6,20.7,6c8.3-0.6,15.1-5.6,22.8-8.3v-10
			c-6.8,1.2-12.1,3.7-19.1,5.4c-9.3,2.3-16.5-0.7-25.3-3.7c-9.4-3.2-18.9-3.2-28.7-5.2C98.5,38.7,90.9,33.6,83,32
			c-9.9-1.9-16.5,4-25.8,6c-7.8,1.7-16.3-0.9-24.2-1.7c-11.3-1.2-21.6,1.9-32.2,4.4v12.1C3.5,52.6,5.8,52.3,8.1,51.5z"/>
		<path fill="#CCE9FC" d="M33.7,55.5c8,0.6,15.7,2.3,23.7,1.3c9-1.1,16.3-4.9,25.7-3.7c16.6,2.2,34.6,7.5,50.2,12.8
			c7.1,2.5,14.2,5.4,21.9,4.8c8.7-0.6,16.5-5.2,24.9-7.7v-9.1c-7.7,2.7-14.6,7.6-22.8,8.3c-7.5,0.6-14.5-2.6-20.7-6
			c-10.5-5.9-15-8.7-27.9-8c-10.3,0.6-16.4,1-25.3-3.6c-8.5-4.4-16.1-2.3-25.2-1.7C49.6,43.4,41,42.4,32.4,43
			c-10.3,0.7-15.1,5.5-24.2,8.4c-2.3,0.7-4.6,1.1-6.9,1.3v6.8C12,57.5,22.6,54.6,33.7,55.5z"/>
		<path fill="#B9DEF6" d="M11.8,65.6c8.4-1.5,15.5,0.1,23.5,2.2c7.3,1.9,14.2,4,21.8,2.7C66.2,69,73.7,62,83,61.4
			c8.1-0.5,13.8,3.4,20.4,7.2c9,5.1,16.6,5.1,26.7,7.1c7.6,1.5,15.3,4.1,23.2,3.7c9.3-0.6,17.8-5,26.8-7.3v-9
			c-8.4,2.5-16.1,7.2-24.9,7.7c-7.6,0.5-14.9-2.4-21.9-4.8C117.5,60.5,99.7,55.2,83,53.2c-9.2-1.2-16.7,2.6-25.7,3.7
			c-8,1-15.8-0.7-23.7-1.3C22.5,54.7,11.8,57.6,1,59.9v8.3C4.6,67.1,8.1,66.3,11.8,65.6z"/>
		<path fill="#B1D6F0" d="M35.5,78.2c16.8-4.4,30.6-1.1,47.5,0.2c15.7,1.2,32.4,1.9,47.8,5c8.1,1.6,16.3,4.4,24.7,4
			c8.5-0.4,16.3-4.2,24.7-6.1V72c-9.1,2.3-17.5,6.7-26.8,7.3c-7.8,0.5-15.6-2.2-23.2-3.7c-10-2-17.6-1.9-26.7-7.1
			c-6.6-3.8-12.4-7.6-20.4-7.2c-9.3,0.6-16.9,7.5-25.9,9.1c-7.6,1.3-14.6-0.7-21.8-2.7c-8-2.2-15.2-3.7-23.5-2.2
			C8.1,66.3,4.6,67.2,1.1,68v12.7C12.7,81.1,24.1,81.2,35.5,78.2z"/>
		<path fill="#A1CAE9" d="M12.2,96.4c10.3,2.3,15.8-1.6,23.5-7.6c6.4-5,12.5-11.2,21.6-8.4c9.8,3,15.4,13.2,25.7,15.2
			c6.9,1.3,14.1-1.6,20.6-3.2c10-2.4,17.7-3.1,27.9-1c8.5,1.7,17.3,4.7,26.1,4.3c7.7-0.3,14.9-3.4,22.4-5.1v-9.3
			c-8.3,2-16.1,5.7-24.7,6.1c-8.4,0.4-16.6-2.4-24.7-4c-15.4-3.1-32.1-3.8-47.9-5C65.8,77.1,52,74,35.1,78.2
			c-11.5,3-22.7,2.9-34.4,2.5v12.5C4.8,94.3,8.4,95.5,12.2,96.4z"/>
		<path fill="#9BC7E8" d="M35.5,98.3c7.4-2.9,13.6-5.2,21.7-4.3c9,1.2,16.7,6.7,25.9,7.6c15.9,1.7,31.7-3.9,47.9-2.1
			c8.2,0.9,16.3,2.4,24.5,2.2c8.3-0.2,16.3-1.7,24.5-2.6v-8.7c-7.6,1.7-14.6,4.8-22.4,5.1c-8.9,0.4-17.6-2.6-26.1-4.3
			c-10.2-2.1-18-1.3-27.9,1c-6.6,1.6-13.7,4.5-20.6,3.2c-10.2-2-15.9-12.2-25.7-15.2c-9.1-2.8-15.3,3.5-21.6,8.4
			c-7.6,6-13.1,10-23.5,7.6c-3.9-0.8-7.6-2-11.1-3.2v7.2C12.7,101.9,23.4,103.1,35.5,98.3z"/>
		<path fill="#7DB3DD" d="M180.1,105v-5.9c-8.2,0.8-16.3,2.4-24.5,2.6s-16.4-1.3-24.5-2.2c-16.2-1.8-32,3.8-47.9,2.1
			c-9.2-1-16.8-6.5-25.9-7.6c-8.1-1-14.4,1.4-21.7,4.3c-12.1,4.8-22.8,3.7-34.3,2.2v4.5L180.1,105L180.1,105z"/>
	</g>
</g>
<g>
	<g>
		<path fill="#F9FCFE" d="M328,26.7c-9.1,2-16.7,3.4-25.1-1.2c-8.1-4.4-15.8-13.9-26.1-12.7c-6.6,0.8-13.7,6.6-20.6,7.8
			c-10.2,2.1-19-1.3-29.2,1.9c-9.2,3-17.7,8.3-27.8,5.7c-6.8-1.7-12.5-2.9-19.1-3.3v-8.7c7.6,1.4,15.2,3.9,22.8,3.9
			c9.8,0,17.4-6.1,25.7-10c10.5-5,17.8-3.2,28.8-1.4c3.5,0.8,7.1,1,10.7,0.8c3.2-0.4,6-1.6,8.5-3.5c10.5-1.7,18.5,6.1,26.1,11.8
			c7.8,5.9,11.9,6.5,21.3,2.9c11.8-4.5,23.1-5.2,35-5.2v9.1C348.8,24.2,339.1,24.2,328,26.7z"/>
		<path fill="#E8F7FD" d="M356.1,28.8c-8.7-2-18.1,0.5-26.7,2.2c-8.1,1.5-18.3,4.9-26.5,2.2c-9-3.1-15.8-14.3-26.1-13.5
			c-7.6,0.5-15.8,9.6-22.2,13c-10.8,5.8-18,0.2-29.4,2.5c-10.7,2.1-20.1,7.4-30,1.4c-6-3.6-9.6-3.5-15.3-2.9v-8.5
			c6.7,0.4,12.2,1.6,19.1,3.3c10,2.6,18.5-2.8,27.8-5.7c10.1-3.2,18.9,0.1,29.2-1.9c6.9-1.4,14.1-7.2,20.6-7.8
			c10.3-1.2,18.1,8.4,26.1,12.7c8.4,4.6,16,3.2,25.1,1.2c11-2.4,20.8-2.4,31-2.2v5.1C358.1,29.2,357.1,29,356.1,28.8z"/>
		<path fill="#E0F4FD" d="M326.8,36.3c-7.8,0.8-16.3,3.4-24.2,1.7c-9.2-2-15.8-7.8-25.8-6c-7.8,1.5-15.5,6.7-23.7,8.4
			c-9.8,2-19.2,2-28.7,5.2c-8.9,3-16,6-25.3,3.7c-7.1-1.7-12.4-4.3-19.1-5.4V33.5c5.7-0.6,9.3-0.7,15.3,2.9c9.9,5.9,19.4,0.7,30-1.4
			c11.5-2.3,18.7,3.3,29.4-2.5c6.3-3.4,14.6-12.5,22.2-13C287.2,18.8,294.1,30,303,33c8.2,2.8,18.4-0.6,26.5-2.2
			c8.5-1.6,17.9-4.2,26.7-2.2c1,0.2,1.9,0.5,2.9,0.8v11.2C348.4,38.2,338.1,35.1,326.8,36.3z"/>
		<path fill="#D3EEFD" d="M352,51.5c-9.1-3-13.7-7.7-24.2-8.4c-8.5-0.5-17.1,0.5-25.7-0.1c-9.2-0.6-16.7-2.7-25.2,1.7
			c-9,4.6-15.1,4.2-25.3,3.6c-13-0.8-17.5,2.1-27.9,8c-6.3,3.5-13.2,6.6-20.7,6c-8.3-0.6-15.1-5.6-22.8-8.3v-10
			c6.8,1.2,12.1,3.7,19.1,5.4c9.3,2.3,16.5-0.7,25.3-3.7c9.4-3.2,18.9-3.2,28.7-5.2c8.3-1.7,15.9-6.8,23.7-8.4
			c9.9-1.9,16.5,4,25.8,6c7.8,1.7,16.3-0.9,24.2-1.7c11.3-1.2,21.6,1.9,32.2,4.4v12.1C356.7,52.6,354.4,52.3,352,51.5z"/>
		<path fill="#CCE9FC" d="M326.4,55.5c-8,0.6-15.7,2.3-23.7,1.3c-9-1.1-16.3-4.9-25.7-3.7c-16.6,2.2-34.6,7.5-50.2,12.8
			c-7.1,2.5-14.2,5.4-21.9,4.8c-8.7-0.6-16.5-5.2-24.9-7.7v-9.1c7.7,2.7,14.6,7.6,22.8,8.3c7.5,0.6,14.5-2.6,20.7-6
			c10.5-5.9,15-8.7,27.9-8c10.3,0.6,16.4,1,25.3-3.6c8.5-4.4,16.1-2.3,25.2-1.7c8.5,0.5,17.1-0.5,25.7,0.1
			c10.3,0.7,15.1,5.5,24.2,8.4c2.3,0.7,4.6,1.1,6.9,1.3v6.8C348.2,57.5,337.6,54.6,326.4,55.5z"/>
		<path fill="#B9DEF6" d="M348.4,65.6c-8.4-1.5-15.5,0.1-23.5,2.2c-7.3,1.9-14.2,4-21.8,2.7c-9.1-1.5-16.6-8.4-25.9-9.1
			c-8.1-0.5-13.8,3.4-20.4,7.2c-9,5.1-16.6,5.1-26.7,7.1c-7.6,1.5-15.3,4.1-23.2,3.7c-9.3-0.6-17.8-5-26.8-7.3v-9
			c8.4,2.5,16.1,7.2,24.9,7.7c7.6,0.5,14.9-2.4,21.9-4.8c15.7-5.5,33.6-10.8,50.2-12.8c9.2-1.2,16.7,2.6,25.7,3.7
			c8,1,15.8-0.7,23.7-1.3c11.1-0.9,21.8,2.1,32.6,4.3v8.3C355.5,67.1,352,66.3,348.4,65.6z"/>
		<path fill="#B1D6F0" d="M324.6,78.2c-16.8-4.4-30.6-1.1-47.5,0.2c-15.7,1.2-32.4,1.9-47.8,5c-8.1,1.6-16.3,4.4-24.7,4
			c-8.5-0.4-16.3-4.2-24.7-6.1V72c9.1,2.3,17.5,6.7,26.8,7.3c7.8,0.5,15.6-2.2,23.2-3.7c10-2,17.6-1.9,26.7-7.1
			c6.6-3.8,12.4-7.6,20.4-7.2c9.3,0.6,16.9,7.5,25.9,9.1c7.6,1.3,14.6-0.7,21.8-2.7c8-2.2,15.2-3.7,23.5-2.2
			c3.6,0.6,7.2,1.5,10.7,2.4v12.7C347.5,81.1,336,81.2,324.6,78.2z"/>
		<path fill="#A1CAE9" d="M347.9,96.4c-10.3,2.3-15.8-1.6-23.5-7.6c-6.4-5-12.5-11.2-21.6-8.4c-9.8,3-15.4,13.2-25.7,15.2
			c-6.9,1.3-14.1-1.6-20.6-3.2c-10-2.4-17.7-3.1-27.9-1c-8.5,1.7-17.3,4.7-26.1,4.3c-7.7-0.3-14.9-3.4-22.4-5.1v-9.3
			c8.3,2,16.1,5.7,24.7,6.1c8.4,0.4,16.6-2.4,24.7-4c15.4-3.1,32.1-3.8,47.8-5c16.9-1.3,30.8-4.5,47.5-0.2c11.5,3,22.7,2.9,34.4,2.5
			v12.5C355.3,94.3,351.8,95.5,347.9,96.4z"/>
		<path fill="#9BC7E8" d="M324.6,98.3C317.3,95.4,311,93,303,94c-9,1.2-16.7,6.7-25.9,7.6c-15.9,1.7-31.7-3.9-47.9-2.1
			c-8.2,0.9-16.3,2.4-24.5,2.2c-8.3-0.2-16.3-1.7-24.5-2.6v-8.7c7.6,1.7,14.6,4.8,22.4,5.1c8.9,0.4,17.6-2.6,26.1-4.3
			c10.2-2.1,18-1.3,27.9,1c6.6,1.6,13.7,4.5,20.6,3.2c10.2-2,15.9-12.2,25.7-15.2c9.1-2.8,15.3,3.5,21.6,8.4c7.6,6,13.1,10,23.5,7.6
			c3.9-0.8,7.6-2,11.1-3.2v7.2C347.5,101.9,336.8,103.1,324.6,98.3z"/>
		<path fill="#7DB3DD" d="M180.1,105v-5.9c8.2,0.8,16.3,2.4,24.5,2.6c8.2,0.2,16.4-1.3,24.5-2.2c16.2-1.8,32,3.8,47.9,2.1
			c9.2-1,16.8-6.5,25.9-7.6c8.1-1,14.4,1.4,21.7,4.3c12.1,4.8,22.8,3.6,34.4,2.1v4.5L180.1,105L180.1,105z"/>
	</g>
</g>
</svg>
