<?xml version="1.0" encoding="utf-8"?>
<!-- Generator: Adobe Illustrator 18.1.1, SVG Export Plug-In . SVG Version: 6.00 Build 0)  -->
<svg version="1.1" xmlns="http://www.w3.org/2000/svg" xmlns:xlink="http://www.w3.org/1999/xlink" x="0px" y="0px"
	 viewBox="0 0 400 400" enable-background="new 0 0 400 400" xml:space="preserve">
<g id="Layer_2">
	<g>
		<g>
			<path fill="#E6F5FD" d="M330.7,174.9c-20.3-4.4-37.4-7.6-56.2,2.7c-17.9,9.8-35.4,31.1-58.4,28.4c-14.6-1.7-30.7-14.5-46.1-17.6
				c-22.9-4.5-42.5,2.9-65.1-4.3c-20.8-6.6-39.7-18.5-62.2-12.8c-15.3,3.9-28,6.4-42.7,7.4v19.5c17.1-3,34-8.8,51.1-8.7
				c21.7,0.1,38.9,13.7,57.4,22.4c23.6,11.1,39.8,7,64.5,3.1c7.8-1.7,15.7-2.3,23.8-1.8c7.2,0.9,13.5,3.5,19,7.8
				c23.6,3.7,41.3-13.8,58.4-26.5c17.6-13.2,26.6-14.4,47.7-6.4c26.4,10,51.5,11.7,78.1,11.9v-20.2
				C377.2,180.3,355.4,180.3,330.7,174.9z"/>
			<path fill="#E8F7FD" d="M393.6,170.3c-19.5,4.5-40.5-1.2-59.6-4.8c-18-3.4-41-11-59.2-4.8c-20,6.8-35.3,31.9-58.4,30.3
				c-16.9-1.2-35.4-21.7-49.4-29.2c-24-12.9-40.2-0.3-65.7-5.5c-23.6-4.7-45-16.4-67-3.2c-13.4,8-21.6,7.7-34.3,6.4v19.2
				c14.8-1,27.4-3.6,42.7-7.4c22.5-5.7,41.4,6.2,62.2,12.8c22.6,7.2,42.3-0.3,65.1,4.3c15.5,3.1,31.5,15.9,46.1,17.6
				c23,2.7,40.5-18.6,58.4-28.4c18.8-10.3,35.8-7.2,56.2-2.7c24.7,5.4,46.5,5.4,69.3,4.9v-11.3C397.9,169.2,395.8,169.7,393.6,170.3
				z"/>
			<path fill="#E0F4FD" d="M328,153.3c-17.5-1.8-36.4-7.6-53.9-3.8c-20.5,4.4-35.3,17.6-57.5,13.3c-17.4-3.4-34.7-14.8-53.1-18.6
				c-21.9-4.5-43-4.4-64.1-11.6c-19.7-6.7-35.7-13.4-56.6-8.3C27,128.1,15,133.8,0,136.5v23.1c12.7,1.2,20.9,1.6,34.3-6.4
				c22-13.2,43.3-1.5,67,3.2c25.6,5.1,41.8-7.4,65.7,5.5c14,7.5,32.6,28,49.4,29.2c23.2,1.6,38.5-23.4,58.4-30.3
				c18.2-6.2,41.2,1.4,59.2,4.8c19.1,3.6,40,9.3,59.6,4.8c2.2-0.5,4.3-1.1,6.4-1.7v-25C376.3,149,353.2,155.9,328,153.3z"/>
			<path fill="#D3EEFD" d="M384.4,119.4c-20.2,6.6-30.8,17.4-54,18.9c-19.1,1.2-38.2-1.1-57.3,0.1c-20.4,1.3-37.4,6-56.5-3.7
				c-20-10.2-33.8-9.4-56.8-8c-29.1,1.8-39.1-4.6-62.6-17.7c-13.9-7.8-29.5-14.7-46.2-13.4C32.6,97,17.3,108,0,114.1v22.4
				c15-2.7,27-8.3,42.7-12.1c20.9-5,36.9,1.6,56.6,8.3c21.2,7.2,42.3,7.1,64.1,11.6c18.4,3.8,35.6,15.2,53.1,18.6
				c22.1,4.4,36.9-8.8,57.5-13.3c17.6-3.8,36.5,2,53.9,3.8c25.2,2.6,48.3-4.3,72-9.8v-27.1C394.7,116.8,389.5,117.7,384.4,119.4z"/>
			<path fill="#CCE9FC" d="M327.1,110.6c-17.8-1.4-35.1-5.1-53-2.9c-20,2.4-36.6,10.9-57.3,8.2c-37.1-4.7-77.2-16.6-112.2-28.7
				c-15.7-5.4-31.8-11.9-49-10.8C35.9,77.8,18.7,88.3,0,93.8v20.3c17.3-6,32.6-17.1,51.1-18.5c16.7-1.3,32.4,5.6,46.2,13.4
				c23.5,13.1,33.5,19.5,62.6,17.7c23-1.4,36.7-2.2,56.8,8c19.1,9.7,36.1,5,56.5,3.7c19.1-1.2,38.2,1.1,57.3-0.1
				c23.2-1.5,33.8-12.3,54-18.9c5.1-1.7,10.3-2.5,15.6-2.9V101C375.8,105.9,352,112.6,327.1,110.6z"/>
			<path fill="#B9DEF6" d="M376.4,87.9c-18.6,3.3-34.7-0.1-52.6-4.9c-16.2-4.3-31.7-8.8-48.8-6c-20.3,3.4-37.2,18.8-58.1,20.1
				c-18,1.2-31-7.6-45.7-15.9c-20.1-11.4-37.2-11.4-59.5-15.8c-16.9-3.3-34.2-9.2-51.7-8.2C39.2,58.5,20.2,68.4,0,73.5v20.3
				c18.7-5.5,35.9-16,55.6-17.4c17.2-1.2,33.3,5.3,49,10.8c35,12.1,75.2,24,112.2,28.7c20.7,2.7,37.3-5.8,57.3-8.2
				c17.9-2.1,35.3,1.5,53,2.9c24.8,2,48.6-4.7,72.9-9.6V82.6C392.2,84.5,384.4,86.5,376.4,87.9z"/>
			<path fill="#B1D6F0" d="M323.2,59.6c-37.5,9.7-68.5,2.5-106.3-0.4c-35.1-2.7-72.4-4.3-106.8-11.1c-18-3.6-36.4-9.9-55.1-8.9
				C36,40.2,18.5,48.6,0,53v20.5c20.2-5.1,39.2-14.9,60-16.2c17.6-1,34.8,4.8,51.7,8.2c22.3,4.4,39.4,4.4,59.5,15.8
				c14.7,8.4,27.6,17.1,45.7,15.9c20.9-1.3,37.8-16.7,58.1-20.1c17-2.9,32.6,1.7,48.8,6c17.8,4.8,34,8.2,52.6,4.9
				c8.1-1.4,15.9-3.4,23.6-5.3V54.1C374.2,53.2,348.7,53,323.2,59.6z"/>
			<path fill="#A1CAE9" d="M375.1,19.1c-23.1-5.1-35.4,3.7-52.4,17.1c-14.1,11.2-28.1,25.1-48.3,19c-21.7-6.6-34.4-29.5-57.4-33.9
				c-15.4-3-31.5,3.7-46.1,7.1c-22.3,5.3-39.6,6.9-62.4,2.3C89.4,27,69.8,20.2,50,21.1c-17.3,0.8-33.2,7.6-50,11.4V53
				c18.5-4.4,36-12.8,55-13.8c18.7-1,37.1,5.3,55.1,8.9c34.4,6.8,71.8,8.5,106.8,11.1c37.8,2.9,68.8,10.1,106.3,0.4
				c25.5-6.6,51-6.4,76.8-5.5v-28C391.9,23.6,383.7,21,375.1,19.1z"/>
			<path fill="#9BC7E8" d="M323.2,14.7c-16.4,6.4-30.4,11.8-48.6,9.5c-20.1-2.6-37.4-14.8-57.7-16.9c-35.6-3.8-70.9,8.6-107.2,4.7
				c-18.2-2-36.5-5.2-55-4.8C36.4,7.5,18.3,11,0,12.9v19.6c16.8-3.7,32.7-10.6,50-11.4c19.8-0.9,39.4,5.9,58.4,9.7
				c22.8,4.6,40.1,3,62.4-2.3c14.6-3.5,30.6-10.1,46.1-7.1c22.9,4.4,35.6,27.3,57.4,33.9c20.2,6.1,34.2-7.8,48.3-19
				c17-13.5,29.3-22.2,52.4-17.1c8.6,1.9,16.8,4.5,24.9,7V10C374.3,6.7,350.3,4.1,323.2,14.7z"/>
			<path fill="#7DB3DD" d="M0,0v12.9C18.3,11,36.4,7.5,54.8,7.1c18.5-0.4,36.7,2.9,55,4.8c36.3,3.9,71.6-8.6,107.2-4.7
				c20.4,2.2,37.6,14.3,57.7,16.9c18.1,2.3,32.2-3,48.6-9.5c27.1-10.7,51.1-8,76.8-4.7V0H0z"/>
		</g>
		<g>
			<path fill="#30717A" d="M376.4,380.7c-18.1-3.3-35-0.1-52.9,2.4c-17,2.4-31.8-1-48.4-0.4c-20.4,0.7-38,11.9-58.1,13.2
				c-39.1,2.4-65.3-27.2-106.1-14.3C93.4,387,78.1,394,59.3,394.6c-19.7,0.6-39.5-0.7-59.3-1.3v6.7h400v-13.9
				C392.2,384.2,384.5,382.2,376.4,380.7z"/>
			<path fill="#4E8E9D" d="M376.4,354.9c-19.1-6.8-34.8-0.4-53.3,4.7c-7.9,2.7-16.1,4.1-24.6,4.2c-7.8-1.5-15.6-3.1-23.4-5
				c-23,1.3-36.2,24-58.2,26.4c-44.5,4.8-58.3-58.6-106.3-28.7c-17,10.6-30,24.9-51.7,26.2c-19.3,1.1-39.3-1.4-58.9-2.6v13.2
				c19.7,0.6,39.6,1.9,59.3,1.3c18.8-0.6,34.1-7.6,51.6-13.1c40.8-12.8,66.9,16.8,106.1,14.3c20.1-1.3,37.7-12.5,58.1-13.2
				c16.6-0.6,31.4,2.8,48.4,0.4c17.9-2.5,34.8-5.7,52.9-2.4c8.1,1.5,15.9,3.5,23.6,5.4v-20.3C392.5,361.9,384.9,358,376.4,354.9z"/>
			<path fill="#448695" d="M382.6,336.9c-17.3-1.6-34.8,5.3-52.5,5c-17.4-0.3-35.5-6.4-52.8-5.5c-21.6,1.2-39.1,16.5-60.4,18
				c-16.9,1.2-27.5-5.9-41.9-12.4c-22.4-10.2-35.9-11.9-59.4-1.9c-19.1,8.1-37.1,20.7-59,20.9c-18.9,0.2-37.8-5.2-56.7-7.9v27.1
				c19.6,1.2,39.6,3.7,58.9,2.6c21.7-1.3,34.7-15.6,51.7-26.2c48-29.9,61.8,33.5,106.3,28.7c21.9-2.4,35.2-25.1,58.2-26.4
				c7.8,1.8,15.5,3.5,23.4,5c8.5-0.1,16.7-1.5,24.6-4.2c18.4-5.1,34.2-11.5,53.3-4.7c8.6,3.1,16.2,7,23.6,11v-25
				C394.3,339,388.5,337.4,382.6,336.9z"/>
			<path fill="#5F9CAB" d="M388.9,318.8c-7.1,2.7-14.1,5.6-21,8.7c-10.5,0.9-20.7-0.2-30.7-3.4c-19.6-4.8-36.9-11.8-57.5-10.1
				c-21.1,1.7-41.4,8.7-62.6,9.6c-34.4,1.5-61.6-9.7-96.3,0c-21.2,5.9-43.6,16.5-66.3,15.6C35.7,338.5,18.3,330.3,0,326v27.1
				c18.9,2.7,37.8,8.1,56.7,7.9c21.9-0.2,39.9-12.8,59-20.9c23.5-10,37-8.2,59.4,1.9c14.4,6.5,25,13.6,41.9,12.4
				c21.3-1.5,38.8-16.8,60.4-18c17.2-1,35.3,5.2,52.8,5.5c17.7,0.3,35.2-6.6,52.5-5c5.9,0.6,11.7,2.1,17.4,4v-22.4
				C396.2,318.3,392.5,318.3,388.9,318.8z"/>
			<path fill="#80B3C2" d="M386.4,299.8c-18.8,1.2-34.9,6.5-54.3,5.2c-18.5-1.2-36.4-7.7-54.7-8.7c-21.6-1.2-40.4,7.1-60.7,12.1
				c-36.4,8.9-67.5-6.3-103.4-3.4c-18.8,1.5-37.1,6.3-56.1,6c-19.2-0.3-38-4.5-57.1-6.7V326c18.3,4.3,35.7,12.6,54.5,13.3
				c22.6,0.9,45.1-9.8,66.3-15.6c34.7-9.6,61.9,1.5,96.3,0c21.2-0.9,41.5-7.9,62.6-9.6c20.7-1.6,37.9,5.3,57.5,10.1
				c10,3.2,20.2,4.3,30.7,3.4c6.9-3.2,13.9-6.1,21-8.7c3.6-0.5,7.3-0.6,11.1-0.3v-18.7C395.4,299.6,390.9,299.5,386.4,299.8z"/>
			<path fill="#A4CAD7" d="M327,285.7c-21.6,2.7-32.2-2.4-52-7.4c-22-5.5-40.2,6.3-58.9,14.6c-42,18.9-69.3,3.1-110.6-6.8
				c-33-7.9-70.9-4.6-105.5-3.8v21.9c19,2.2,37.9,6.3,57.1,6.7c19,0.3,37.3-4.5,56.1-6c36-2.9,67.1,12.3,103.4,3.4
				c20.3-5,39.1-13.3,60.7-12.1c18.3,1,36.2,7.5,54.7,8.7c19.4,1.3,35.5-4,54.3-5.2c4.5-0.3,9.1-0.2,13.6,0.1v-17.8
				C375.7,282,352,282.6,327,285.7z"/>
			<path fill="#B2D3DE" d="M373.9,266.2c-17.3-1.3-33.6-8.2-51.1-10.2c-14.6-1.6-33-7-47.6-5.9c-21.8,1.7-38.2,18.2-59,23
				c-35.7,8.3-74.2,6.8-108.7-4c-18.3-5.8-36.4-11.8-56.1-11.9c-17.2-0.1-34.3,2.5-51.5,3.9v21.2c34.6-0.8,72.5-4.1,105.5,3.8
				c41.3,9.9,68.6,25.7,110.6,6.8c18.6-8.4,36.8-20.1,58.9-14.6c19.8,5,30.4,10.1,52,7.4c25.1-3.2,48.8-3.8,73-3.7v-16.6
				C391.2,266.3,382.5,266.8,373.9,266.2z"/>
			<path fill="#DDEFF8" d="M363.9,251.7c-18.5-2.4-29.1-18.3-45.4-25.4c-13.2-5.8-29-9.5-43.3-4.5c-21.5,7.5-34.3,31-58.9,31.4
				c-6.3-3.3-13.1-5-20.3-5.3c-7.4,0.4-14.6,1.9-21.6,4.3c-25.4,6.1-39,9-64.8-0.2c-21.2-7.6-42.8-20.2-66.2-20.2
				c-14.7,0-28.9,4.9-43.4,7.6v21.6c17.2-1.4,34.3-4,51.5-3.9c19.6,0.1,37.7,6.2,56.1,11.9c34.4,10.8,73,12.3,108.7,4
				c20.8-4.8,37.2-21.3,59-23c14.6-1.1,33,4.3,47.6,5.9c17.5,2,33.7,8.9,51.1,10.2c8.6,0.7,17.4,0.1,26.1-0.7v-17.1
				C387.7,251.1,375.3,253.2,363.9,251.7z"/>
			<path fill="#E3F2FD" d="M370.1,225.8c-20.2-1.3-33.5-13.9-50.1-23c-16.6-9.1-29-13.4-45.6-2.4c-17.6,11.6-34.5,36.1-58.3,36.1
				c-6.1-3.2-12.7-5.1-19.6-5.8c-7.7,0-15.3,1-22.7,3.1c-24.9,5.4-40.3,8.3-64.7-1.6c-19.9-8.1-39.2-21.1-61.8-21.3
				c-15.9-0.1-31.5,5.2-47.2,8.1v20.6c14.5-2.8,28.7-7.6,43.4-7.6c23.5,0,45,12.6,66.2,20.2c25.8,9.2,39.4,6.3,64.8,0.2
				c7-2.5,14.2-3.9,21.6-4.3c7.2,0.2,14,2,20.3,5.3c24.6-0.4,37.4-23.9,58.9-31.4c14.3-5,30.1-1.3,43.3,4.5
				c16.3,7.1,26.9,23,45.4,25.4c11.5,1.5,23.8-0.6,36.1-3.4v-24C390,225.6,380,226.4,370.1,225.8z"/>
			<path fill="#E4F3FD" d="M321.9,188.1c-21.1-8-30.1-6.7-47.7,6.4c-17.1,12.8-34.8,30.2-58.4,26.5c-5.5-4.3-11.9-6.9-19-7.8
				c-8-0.5-15.9,0.1-23.8,1.8c-24.8,3.9-41,8-64.5-3.1c-18.4-8.7-35.7-22.3-57.4-22.4c-17.2-0.1-34.1,5.6-51.1,8.7v20.6
				c15.8-2.9,31.4-8.3,47.2-8.1c22.6,0.2,41.9,13.1,61.8,21.3c24.4,10,39.8,7,64.7,1.6c7.4-2.1,15-3.1,22.7-3.1
				c7,0.7,13.5,2.7,19.6,5.8c23.9-0.1,40.7-24.5,58.3-36.1c16.6-10.9,29.1-6.6,45.6,2.4c16.6,9.1,30,21.8,50.1,23
				c9.9,0.6,19.9-0.2,29.9-1.4V200C373.4,199.8,348.3,198.1,321.9,188.1z"/>
		</g>
	</g>
</g>
<g id="Layer_3">
	<g>
		<g>
			<path fill="#E5F5FD" d="M384.9,149.5c-28.8-4.4-51.3,11.9-76.7,22.1c-27.7,11.1-53.1,4.2-81.3,12.1
				c-19.1,5.4-37.9,22.6-56.1,26.2c-28.6,5.7-52.8-18.1-76.3-28.1c-24.6-10.5-45.7-4.8-70.8,2.7c-8.1,2.4-16,4.4-23.8,6v22
				c12.1-3.2,24.1-7.4,36.2-13c25.6-11.9,37-11.4,60.5,2.7c22.8,13.6,46.8,32.8,76.1,25.8c6.5-5.8,14.2-9.7,23.1-11.5
				c10-1.4,20-1.6,30-0.4c31.5,2.1,52.3,5.3,80.7-10.6c22.2-12.5,42.4-30.8,69.7-33.2c7.9-0.7,15.8-0.5,23.7,0.2v-21
				C395.1,151,390.2,150.3,384.9,149.5z"/>
			<path fill="#E0F5FE" d="M393.6,126.6c-29-13.6-54.5,2.8-83.7,11.1c-31.6,8.9-53.2-4.5-82,13.6c-16.8,10.6-38,37.4-59,40.6
				c-28.9,4.5-50.7-24.2-76.5-30.3c-23.5-5.6-51.6,6.1-73.8,12.1c-6.1,1.7-12.3,3.5-18.6,5.2v11.8c7.8-1.6,15.7-3.6,23.8-6
				c25.1-7.5,46.1-13.2,70.8-2.7c23.5,10,47.7,33.8,76.3,28.1c18.2-3.6,37-20.9,56.1-26.2c28.2-7.9,53.6-1,81.3-12.1
				c25.4-10.2,47.9-26.6,76.7-22.1c5.2,0.8,10.2,1.5,15.1,2.1v-22.3C398,128.5,395.8,127.6,393.6,126.6z"/>
			<path fill="#A4CAD6" d="M380,92.7c-26.8-3.9-46.1,5.9-70.2,16.1c-25.8,10.9-52.3,13.1-79.3,20.9c-22.7,6.5-43.2,22.1-64.7,28.2
				c-27.3,7.6-47.3-6.7-73.5-9.9c-22.4-2.7-45.5,6.3-67.3,10.3c-8.5,1.6-16.8,2.3-25,2.4v18.1c6.3-1.8,12.6-3.6,18.6-5.2
				c22.2-6,50.3-17.7,73.8-12.1c25.8,6.1,47.6,34.8,76.5,30.3c21-3.2,42.2-30,59-40.6c28.7-18.1,50.4-4.7,82-13.6
				c29.2-8.3,54.7-24.6,83.7-11.1c2.3,1.1,4.4,1.9,6.4,2.7V96.4C393.7,95,387.1,93.7,380,92.7z"/>
			<path fill="#CBE8F9" d="M366.5,58.7c-21.2,0.2-40,10.3-56.6,21.1c-28.1,18.4-40,27.2-76.7,28.1c-29,0.8-46.3,1.2-70.4,15.7
				c-23,13.8-44.8,10-70.6,10.6c-24.1,0.6-47.8,5.4-71.9,6c-7.6,0.2-14.2-0.5-20.3-1.7v22.1c8.2-0.1,16.6-0.9,25-2.4
				c21.8-4.1,44.9-13,67.3-10.3c26.2,3.1,46.2,17.5,73.5,9.9c21.5-6,42-21.6,64.7-28.2c27-7.7,53.5-10,79.3-20.9
				c24.1-10.2,43.4-20,70.2-16.1c7.1,1,13.6,2.4,20,3.8V65.1C389.2,61.5,378.2,58.6,366.5,58.7z"/>
			<path fill="#DAF1FD" d="M358.9,36.1c-21.7,0.4-41.3,10-60.4,18.3c-42.7,18.4-91.9,37-137.9,46.7c-25.8,5.4-47.4-3-72.8-3.8
				c-22.7-0.7-44.1,5.6-66.3,9.2c-7.2,1.2-14.4,1.8-21.6,2v30.1c6.1,1.2,12.7,1.9,20.3,1.7c24.1-0.6,47.8-5.4,71.9-6
				c25.8-0.6,47.6,3.2,70.6-10.6c24.1-14.5,41.4-14.9,70.4-15.7c36.7-1,48.5-9.8,76.7-28.1C326.5,69,345.3,59,366.5,58.7
				c11.7-0.1,22.7,2.8,33.5,6.3v-22C386.6,39.2,373.1,35.8,358.9,36.1z"/>
			<path fill="#A5CCEB" d="M351.4,13.5c-22.2,0.6-43.2,9.5-64.1,15.4c-27.5,7.7-49.1,9.5-73.1,25.4c-17.6,11.7-32.9,23.6-55.7,24.2
				c-26.3,0.6-49.1-16.2-75-18.1c-21.7-1.6-40.7,5.5-60.6,12.5C15.1,75.5,7.6,78,0,80v28.5c7.2-0.2,14.4-0.8,21.6-2
				c22.2-3.6,43.6-9.9,66.3-9.2c25.4,0.7,47,9.2,72.8,3.8c46-9.7,95.2-28.3,137.9-46.7c19.1-8.2,38.7-17.8,60.4-18.3
				c14.2-0.3,27.6,3.1,41.1,7V20.6C383.9,16.7,367.9,13,351.4,13.5z"/>
			<path fill="#A2CAE9" d="M312.4,0c-8.3,2.6-16.6,5.4-24.8,7.7c-42.5,12-89.2,17.9-132.9,24.9c-47.1,7.5-85.3,19.6-133.4,11.8
				C14.1,43.3,7,42.6,0,42.1V80c7.6-2,15.1-4.5,22.9-7.2c19.9-7,38.9-14.1,60.6-12.5c25.9,1.9,48.6,18.7,75,18.1
				c22.8-0.5,38.1-12.5,55.7-24.2c24-16,45.6-17.7,73.1-25.4c20.9-5.9,41.9-14.8,64.1-15.4c16.6-0.5,32.6,3.3,48.6,7.1V0H312.4z"/>
			<path fill="#9AC3E4" d="M126.4,0C112,11.7,100,27,82.2,33.9c-24.8,9.6-43.8-5.8-62.7-17.8C12.6,11.7,6.3,7.8,0,4.8v37.4
				c7,0.4,14.1,1.2,21.2,2.3c48.1,7.7,86.2-4.3,133.4-11.8c43.7-7,90.5-12.9,132.9-24.9c8.2-2.3,16.5-5.1,24.8-7.7H126.4z"/>
			<path fill="#8BB9E0" d="M0,0v4.8c6.3,3.1,12.6,7,19.5,11.4c18.9,12,37.9,27.4,62.7,17.8C100,27,112,11.7,126.4,0H0z"/>
		</g>
		<g>
			<path fill="#3B7D89" d="M354.8,400c-12.2-5.4-23.3-13.1-35.9-19.3c-36.7-18-55.7,0.6-76.2,19.3H354.8z"/>
			<path fill="#397A88" d="M387.1,380.3c-27.5,2.1-51.4-11.2-76.2-19c-30.6-9.6-47.3-6-74.3,8.7c-17.4,9.5-30,19.2-51.3,19.5
				c-26.9,0.4-50.4-16.1-77.6-15.3c-21.7,0.7-43.8,10.1-65.7,12.3c-13.9,1.4-28-0.6-42-1.4V400h242.8c20.5-18.7,39.5-37.3,76.2-19.3
				c12.6,6.2,23.7,13.9,35.9,19.3H400v-21.3C395.7,379.4,391.4,380,387.1,380.3z"/>
			<path fill="#408291" d="M387.7,353.8c-28.3,3.5-57.6-7-84.8-11.8c-44.5-7.9-77.6,8.5-120.9,10.4c-26.7,1.1-52.9-5.1-79.5-4.9
				c-26.1,0.2-47,10.5-71.2,18.4c-10.1,4.1-20.5,6.4-31.3,7.1v12.1c13.9,0.8,28,2.8,42,1.4c21.9-2.2,43.9-11.6,65.7-12.3
				c27.2-0.8,50.7,15.7,77.6,15.3c21.4-0.3,33.9-10,51.3-19.5c27-14.7,43.8-18.3,74.3-8.7c24.8,7.8,48.7,21,76.2,19
				c4.3-0.3,8.6-0.9,12.9-1.6v-27.2C396,352.5,391.8,353.3,387.7,353.8z"/>
			<path fill="#4E8E9E" d="M381.5,319.7c-23.8,2.4-47.3-1.4-71-1.2c-45.5,0.4-82.9,22.1-129.5,15.2c-26-3.8-50.4-11.9-77.5-8.1
				c-22.9,3.2-44.7,13-67.8,16.4c-12.5,1.9-24.1,1.5-35.7,0.8V373c10.8-0.7,21.2-3.1,31.3-7.1c24.1-7.9,45.1-18.2,71.2-18.4
				c26.6-0.2,52.8,6,79.5,4.9c43.3-1.9,76.4-18.3,120.9-10.4c27.2,4.8,56.5,15.3,84.8,11.8c4.2-0.5,8.3-1.3,12.3-2.3V317
				C393.9,318.2,387.7,319.1,381.5,319.7z"/>
			<path fill="#94C0CD" d="M318,295.1c-50.8,16.4-83.4,38.4-138.1,20.1c-24.2-8.1-48.3-20.4-75.4-11.4
				c-24.3,8.1-37.1,15.5-64.5,14.5c-13.7-0.5-26.9-0.4-40.1,0v24.6c11.6,0.7,23.2,1,35.7-0.8c23.1-3.5,44.9-13.3,67.8-16.4
				c27-3.8,51.4,4.3,77.5,8.1c46.6,6.8,84-14.9,129.5-15.2c23.7-0.2,47.2,3.7,71,1.2c6.2-0.6,12.4-1.6,18.5-2.7v-35.1
				C371.7,283.7,343.4,286.8,318,295.1z"/>
			<path fill="#D3E9F1" d="M382.8,254.2c-24.6,2.2-46.7,11.5-69.1,20.4c-42.1,16.8-90.3,22.7-136,16.5
				c-26.6-3.6-48.9-21.8-76.4-21.5c-18.4,0.2-40.9,8.7-59.1,12.3c-14.6,2.8-28.2,8.3-42.2,12.7v23.7c13.1-0.4,26.4-0.5,40.1,0
				c27.3,1,40.1-6.4,64.5-14.5c27.1-9,51.2,3.3,75.4,11.4c54.7,18.3,87.3-3.6,138.1-20.1c25.4-8.2,53.7-11.3,82-13.1v-28.6
				C394.3,253.4,388.6,253.7,382.8,254.2z"/>
			<path fill="#E9F7FD" d="M390.4,222.8c-29.5,2.5-55.2,20-81,31.5c-31.4,13.9-48.8,11.8-81.4,7.2c-9-2.2-18.2-3.2-27.6-2.9
				c-9,1.1-17.3,3.9-24.9,8.5c-30.9,2.2-49.5-24.9-77.2-31.7c-18.4-4.5-37.9,1.6-53.9,10c-16.7,8.8-27.6,24.7-44.5,32.3v16.7
				c13.9-4.3,27.6-9.8,42.2-12.7c18.2-3.6,40.7-12,59.1-12.3c27.6-0.3,49.9,17.9,76.4,21.5c45.7,6.2,93.9,0.3,136-16.5
				c22.4-8.9,44.5-18.2,69.1-20.4c5.7-0.5,11.4-0.8,17.2-0.9v-30.8C396.8,222.4,393.6,222.5,390.4,222.8z"/>
			<path fill="#DBEEF7" d="M383.4,197.6c-28.3,2.6-51.2,20.4-75.3,32.4c-29.6,14.7-49.2,12.8-81,8.9c-9.5-1.7-19.1-2.1-28.8-1.3
				c-8.7,1.7-16.7,4.7-24,9.2c-29.9,2.5-53.6-25.3-77-37.4c-22-11.4-37.2-4.9-57,7.8C26.2,226.1,14.4,237,0,244v33.8
				c16.9-7.6,27.8-23.5,44.5-32.3c16-8.4,35.4-14.6,53.9-10c27.7,6.8,46.3,33.8,77.2,31.7c7.6-4.6,15.9-7.5,24.9-8.5
				c9.4-0.3,18.6,0.7,27.6,2.9c32.6,4.6,50,6.7,81.4-7.2c25.9-11.4,51.6-29,81-31.5c3.2-0.3,6.4-0.3,9.6-0.3v-25.1
				C394.4,197.1,388.9,197.1,383.4,197.6z"/>
			<path fill="#C2E0F6" d="M376.3,172.4c-27.2,2.5-47.5,20.8-69.7,33.2c-28.4,15.9-49.2,12.7-80.7,10.6c-10-1.2-20-1.1-30,0.4
				c-8.9,1.9-16.6,5.7-23.1,11.5c-29.3,7-53.3-12.2-76.1-25.8c-23.5-14-34.9-14.6-60.5-2.7c-12.1,5.6-24.2,9.8-36.2,13V244
				c14.4-7,26.2-17.9,40.2-26.8c19.9-12.7,35.1-19.3,57-7.8c23.3,12.1,47,39.9,77,37.4c7.4-4.5,15.4-7.5,24-9.2
				c9.7-0.9,19.3-0.4,28.8,1.3c31.8,3.8,51.4,5.8,81-8.9c24.1-12,47-29.7,75.3-32.4c5.5-0.5,11.1-0.5,16.6-0.2v-24.8
				C392.1,171.9,384.2,171.7,376.3,172.4z"/>
		</g>
	</g>
</g>
</svg>
